<?xml version="1.0" encoding="utf-8"?>
<!-- Generator: Adobe Illustrator 23.0.1, SVG Export Plug-In . SVG Version: 6.00 Build 0)  -->
<svg version="1.1" id="Capa_1" xmlns="http://www.w3.org/2000/svg" xmlns:xlink="http://www.w3.org/1999/xlink" x="0px" y="0px"
	 viewBox="0 0 720 720" enable-background="new 0 0 720 720" xml:space="preserve">
<g>
	<path fill="#571AFF" d="M718.6,360c0-0.1,0-0.2,0-0.3h0c0-13.4-0.8-26.8-2.3-40.2c-21.8,1.5-42.4-10.4-52-30
		c-13.1-26.7-2-58.9,24.7-71.9c-10.8-25-24.4-48.7-40.7-70.6c-18.1,12.2-41.8,12.2-59.9,0.1c-24.7-16.5-31.4-49.9-14.9-74.6
		c-21.9-16.3-45.6-30-70.6-41c-9.6,20-30.5,32-52.6,30.3c-29.6-2.3-51.8-28.2-49.5-57.8c-27.1-3.1-54.4-3.1-81.5,0
		c2.1,25.9-14.6,49.6-39.7,56.3c-25,6.7-51.3-5.4-62.4-28.7c-25,10.8-48.7,24.5-70.6,40.7c12.3,18.1,12.4,41.9,0.2,60.1
		c-16.5,24.7-49.9,31.3-74.6,14.7c-16.3,21.9-30,45.5-40.9,70.5c20,9.6,32,30.6,30.3,52.7c-2.4,29.6-28.3,51.7-57.9,49.3
		c-1.5,13.3-2.3,26.7-2.3,40h0c0,0.1,0,0.2,0,0.3c0,0.1,0,0.2,0,0.3h0c0,13.4,0.8,26.8,2.3,40.2c21.8-1.5,42.4,10.4,52,30
		c13.1,26.7,2,58.9-24.7,71.9c10.8,25,24.4,48.7,40.7,70.6c18.1-12.2,41.8-12.2,59.9-0.1c24.7,16.5,31.4,49.9,14.9,74.6
		c21.9,16.3,45.6,30,70.6,41c9.6-20,30.5-32,52.6-30.3c29.6,2.3,51.8,28.2,49.5,57.8c27.1,3.1,54.4,3.1,81.5,0
		c-2.1-25.9,14.6-49.6,39.7-56.3c25-6.7,51.3,5.4,62.4,28.7c25-10.8,48.7-24.5,70.6-40.7c-12.3-18.1-12.4-41.9-0.2-60.1
		c16.5-24.7,49.9-31.3,74.6-14.7c16.3-21.9,30-45.5,40.9-70.5c-20-9.6-32-30.6-30.3-52.7c2.4-29.6,28.3-51.7,57.9-49.3
		c1.5-13.3,2.3-26.7,2.3-40h0C718.6,360.2,718.6,360.1,718.6,360z M359.8,628.4c-148.2,0-268.4-120-268.9-268.1h0.4
		C91.4,211.9,211.7,91.6,360.2,91.6c148.2,0,268.4,120,268.9,268.1h-0.4C628.6,508.1,508.3,628.4,359.8,628.4z"/>
	<path fill="#571AFF" d="M614.6,360.3c0-0.1,0-0.2,0-0.3c0-0.1,0-0.2,0-0.2c0,0,0-0.1,0-0.1h0c-0.3-140.3-114.2-254-254.6-254
		s-254.2,113.7-254.6,254h0c0,0,0,0.1,0,0.1c0,0.1,0,0.2,0,0.3c0,0.1,0,0.2,0,0.2c0,0,0,0.1,0,0.1h0c0.3,140.3,114.2,254,254.6,254
		S614.2,500.7,614.6,360.3L614.6,360.3C614.6,360.3,614.6,360.3,614.6,360.3z"/>
</g>
<g>
	<linearGradient id="SVGID_1_" gradientUnits="userSpaceOnUse" x1="249.12" y1="318.9414" x2="373.5895" y2="220.077">
		<stop  offset="0" style="stop-color:#F62E2E"/>
		<stop  offset="1" style="stop-color:#EF1212"/>
	</linearGradient>
	<path fill="url(#SVGID_1_)" d="M382.9,250.1c-5.2-26.6-21.8-43.3-47.8-50.9c-1.3-0.4-5.3,1.4-3.8-3c-7.6,0-15.2,0-22.8,0
		c3.1,2.7-1,2-1.4,3c0,4.6,0,9.3,0,13.9c17-2.8,32.4,0.4,45.5,12.1c1.6,1.4,6.2,2.5,2.8,6.4c-3.1,3.5-4.8,0.2-6.8-1.5
		c-10.5-8.9-22.4-12.9-36.1-10.8c-5.8,0.5-11.1,2.5-16,5.4c-2.3,1.4-3.7,1.1-5.2-1.2c-2-3,0.3-3.8,2.1-4.7c4.5-2.1,9.1-3.9,13.7-5.8
		c0-4.6,0-9.3,0-13.9c-24,5.1-39.9,19.8-47.6,42.7c-7.8,23.2-3.3,44.8,12.4,63.7c5.4,6.5,5.6,6.4-1.5,11.1
		c-8.2,5.4-16.3,10.9-26,17.3c24.3,2.2,46.4,1.6,68.4-1.9c12.9-1.4,25-5.2,36.3-11.3C376,306.4,388.6,279.4,382.9,250.1z"/>
	<path fill="#FFFFFF" d="M508.8,427.8c-3.4-19.5-15.8-32.4-33.8-35.2c-18.7-4.4-36.6,0-54.3,5.6c-4.6,1.4-8.7,4.3-13.7,4.7
		c0.1-0.8,0-1.3,0.2-1.7c0.4-0.9,0.9-1.7,1.4-2.5c22.2-37.3,32-77.6,29.3-120.8c-1.5-23.8-8-45.7-26.4-62.4
		c-1.2-1.1-2.1-3.3-4.6-2.4c4,35.8-2.2,69.3-23.3,99.2c-22,26.5-50.7,39.3-84.7,41.1c-16.7,0.9-33.5,1.7-49.9-1.1
		c-13.7-2.3-26.8-7.2-38.5-15.2c0,1.9,0,3.8,0,5.7c1.6-1.4,2,0.4,2.4,1.1c10.4,24.4,29.9,38.8,53.6,48.5
		c12.5,5.1,25.3,9.5,38.7,11.2c5,0.6,5.6,2.8,5.3,6.9c-1.8,22-8.8,42.1-22.2,59.6c-19.7,25.6-41,28.4-70,15.4
		c-2.5-1.1-4.5-3.5-7.7-3.4c0,2.4,0,4.7,0,7.1c0.1-0.2,0.2-0.4,0.3-0.6c0.1-0.2,0.3-0.4,0.4-0.4c2.5,1.1,2.6,3.8,3.5,5.9
		c7,15,18.7,24.7,34.8,27.5c18.5,3.2,37.3,3.3,55.6-2c30.3-8.7,55.7-26.6,81.7-43.4c3-1.8,6.2-3.4,9-5.5
		c13.8-10.4,28.7-18.9,44.3-26.3c11-5.2,22.4-8.8,34.9-6.5c17.2,6.1,20.9,21.8,25.2,37.6C508,460.8,511.2,442.1,508.8,427.8z"/>
</g>
</svg>
