<?xml version="1.0" encoding="utf-8"?>
<!-- Generator: Adobe Illustrator 23.0.1, SVG Export Plug-In . SVG Version: 6.00 Build 0)  -->
<svg version="1.1" id="Capa_1" xmlns="http://www.w3.org/2000/svg" xmlns:xlink="http://www.w3.org/1999/xlink" x="0px" y="0px"
	 viewBox="0 0 720 720" enable-background="new 0 0 720 720" xml:space="preserve">
<g>
	<path fill="#571AFF" d="M718.6,360c0-0.1,0-0.2,0-0.3h0c0-13.4-0.8-26.8-2.3-40.2c-21.8,1.5-42.4-10.4-52-30
		c-13.1-26.7-2-58.9,24.7-71.9c-10.8-25-24.4-48.7-40.7-70.6c-18.1,12.2-41.8,12.2-59.9,0.1c-24.7-16.5-31.4-49.9-14.9-74.6
		c-21.9-16.3-45.6-30-70.6-41c-9.6,20-30.5,32-52.6,30.3c-29.6-2.3-51.8-28.2-49.5-57.8c-27.1-3.1-54.4-3.1-81.5,0
		c2.1,25.9-14.6,49.6-39.7,56.3c-25,6.7-51.3-5.4-62.4-28.7c-25,10.8-48.7,24.5-70.6,40.7c12.3,18.1,12.4,41.9,0.2,60.1
		c-16.5,24.7-49.9,31.3-74.6,14.7c-16.3,21.9-30,45.5-40.9,70.5c20,9.6,32,30.6,30.3,52.7c-2.4,29.6-28.3,51.7-57.9,49.3
		c-1.5,13.3-2.3,26.7-2.3,40h0c0,0.1,0,0.2,0,0.3c0,0.1,0,0.2,0,0.3h0c0,13.4,0.8,26.8,2.3,40.2c21.8-1.5,42.4,10.4,52,30
		c13.1,26.7,2,58.9-24.7,71.9c10.8,25,24.4,48.7,40.7,70.6c18.1-12.2,41.8-12.2,59.9-0.1c24.7,16.5,31.4,49.9,14.9,74.6
		c21.9,16.3,45.6,30,70.6,41c9.6-20,30.5-32,52.6-30.3c29.6,2.3,51.8,28.2,49.5,57.8c27.1,3.1,54.4,3.1,81.5,0
		c-2.1-25.9,14.6-49.6,39.7-56.3c25-6.7,51.3,5.4,62.4,28.7c25-10.8,48.7-24.5,70.6-40.7c-12.3-18.1-12.4-41.9-0.2-60.1
		c16.5-24.7,49.9-31.3,74.6-14.7c16.3-21.9,30-45.5,40.9-70.5c-20-9.6-32-30.6-30.3-52.7c2.4-29.6,28.3-51.7,57.9-49.3
		c1.5-13.3,2.3-26.7,2.3-40h0C718.6,360.2,718.6,360.1,718.6,360z M359.8,628.4c-148.2,0-268.4-120-268.9-268.1h0.4
		C91.4,211.9,211.7,91.6,360.2,91.6c148.2,0,268.4,120,268.9,268.1h-0.4C628.6,508.1,508.3,628.4,359.8,628.4z"/>
	<path fill="#571AFF" d="M614.6,360.3c0-0.1,0-0.2,0-0.3c0-0.1,0-0.2,0-0.2c0,0,0-0.1,0-0.1h0c-0.3-140.3-114.2-254-254.6-254
		s-254.2,113.7-254.6,254h0c0,0,0,0.1,0,0.1c0,0.1,0,0.2,0,0.3c0,0.1,0,0.2,0,0.2c0,0,0,0.1,0,0.1h0c0.3,140.3,114.2,254,254.6,254
		S614.2,500.7,614.6,360.3L614.6,360.3C614.6,360.3,614.6,360.3,614.6,360.3z"/>
</g>
<g>
	<g>
		<path fill="#5A32ED" d="M7.7,433.7c1.9,0,1.9-3,0-3C5.7,430.7,5.7,433.7,7.7,433.7L7.7,433.7z"/>
	</g>
</g>
<g>
	<g>
		<path fill="#5A32ED" d="M7.7,433.7c1.9,0,1.9-3,0-3C5.7,430.7,5.7,433.7,7.7,433.7L7.7,433.7z"/>
	</g>
</g>
<g>
	<text transform="matrix(1 0 0 1 336.827 389.839)" fill="#FFFFFF" font-family="'PhrasticMedium'" font-size="91.9559px">p</text>
	<g>
		<path fill="#FFFFFF" d="M357.7,538.1c-29.8-18.7-59.5-37.3-89.3-56c-7.6-4.8-15.3-9.6-22.9-14.4c-5.2-3.3-6.1-5.3-4.8-11.3
			c6.8-31.1,13.6-62.2,20.4-93.3c5.1-23.1,10.1-46.2,15.2-69.3c0.5-2.3,1.4-4.8,2.8-6.7c24.4-33.5,48.9-66.9,73.4-100.3
			c3.3-4.5,6.7-6,10.3-4.1c1.9,1,3.7,2.8,5,4.6c18.5,25.1,36.9,50.3,55.3,75.4c4.4,6.1,8.6,12.3,13.4,18.1
			c4.7,5.8,7.2,12.2,8.8,19.5c11.2,51.7,22.5,103.4,33.8,155c1.5,7,0.8,8.8-5.2,12.6c-36,22.6-72.1,45.1-108.1,67.7
			c-1.1,0.7-2.2,1.6-3.3,2.3C361,538.1,359.3,538.1,357.7,538.1z M360.2,278.2c-0.8,0.9-1.2,1.3-1.5,1.8
			c-14.7,25.8-29.3,51.6-43.8,77.5c-0.7,1.3-0.7,3.5-0.2,5c9.1,28.9,18.4,57.8,27.5,86.8c0.7,2.4,1.9,3.2,4.4,3.2
			c8.6-0.1,17.2-0.2,25.8,0c3.5,0.1,5-1.1,6-4.4c8.9-28.3,17.9-56.5,27-84.8c0.9-2.7,0.6-4.9-0.8-7.3c-14-24.6-28-49.2-41.9-73.8
			C361.9,281,361.2,279.9,360.2,278.2z M368.9,214.9c-0.3,0.1-0.6,0.3-0.9,0.4c-0.1,0.8-0.2,1.6-0.2,2.3c0,13.3-0.1,26.5,0.1,39.8
			c0,2.1,0.9,4.3,1.9,6.1c13.4,23.8,26.9,47.6,40.4,71.3c0.6,1.1,1.4,2.2,2.4,3.8c0.6-1.3,1.1-2.1,1.4-3
			c4.1-12.7,8.3-25.5,12.1-38.3c0.5-1.8-0.2-4.6-1.3-6.2c-17.5-24.1-35.1-48.1-52.7-72.1C371,217.7,370,216.3,368.9,214.9z
			 M307.1,338.7c0.7-0.8,1.2-1.1,1.4-1.6c14.2-25.1,28.5-50.2,42.7-75.3c0.8-1.3,1-3.1,1.1-4.7c0.1-13,0.1-26,0-39
			c0-1.1-0.2-2.2-0.4-3.6c-0.8,0.6-1,0.7-1.2,0.9c-18.9,25.7-37.7,51.4-56.5,77.1c-0.8,1.1-0.8,3.4-0.4,4.8
			c3.5,11.5,7.2,23,10.8,34.4C305.4,334,306.2,336.1,307.1,338.7z M326.9,452c-7.9-24.7-15.6-48.8-23.3-73c-0.4,0-0.8,0-1.2,0
			c-13.7,24.1-27.4,48.3-41.4,73C283.4,452,304.8,452,326.9,452z M417.5,379c-0.4,0.1-0.8,0.2-1.2,0.2
			c-7.7,24.1-15.4,48.3-23.2,72.9c22.1,0,43.6,0,65.9,0C444.9,427.3,431.2,403.1,417.5,379z M345.7,512.4c-0.5-2.2-0.6-3.2-0.9-4.2
			c-3.8-12.1-7.8-24.2-11.5-36.3c-1-3.2-2.5-4.2-5.8-4.2c-15.7,0.2-31.4,0.1-47.1,0.1c-1.3,0-2.6,0.1-3.9,0.2
			c-0.1,0.3-0.2,0.6-0.3,0.9C299.1,483.2,321.9,497.5,345.7,512.4z M374.3,511c0.3,0.3,0.6,0.5,0.9,0.8
			c22.8-14.3,45.6-28.6,69.2-43.3c-1.5-0.4-2-0.7-2.5-0.7c-17.1,0-34.2-0.1-51.3,0.1c-1.2,0-3,1.7-3.5,3c-2.2,6-4,12.2-5.9,18.3
			C378.9,496.5,376.6,503.8,374.3,511z M451.9,408.4c0.4-0.1,0.8-0.2,1.2-0.4c-6.1-27.8-12.2-55.6-18.3-83.5c-0.4,0-0.7,0-1.1,0
			c-3.2,10-6.5,20-9.4,30c-0.5,1.8-0.2,4.4,0.7,6c6.3,11.5,12.9,22.9,19.3,34.3C446.8,399.5,449.4,404,451.9,408.4z M286.4,324.8
			c-0.4,0-0.8,0-1.2,0.1c-6.1,27.8-12.2,55.7-18.5,84.6c1.2-1.1,1.6-1.3,1.8-1.6c9.1-16,18.2-32,27.3-48.1c0.5-0.9,1-2.2,0.7-3
			C293.2,346,289.7,335.4,286.4,324.8z M348.2,468.1c3.9,12.2,7.6,23.7,11.2,35.2c0.4,0,0.8,0,1.2,0c3.7-11.6,7.4-23.1,11.2-35.2
			C363.7,468.1,356.3,468.1,348.2,468.1z"/>
	</g>
</g>
</svg>
