<?xml version="1.0" encoding="utf-8"?>
<!-- Generator: Adobe Illustrator 23.0.1, SVG Export Plug-In . SVG Version: 6.00 Build 0)  -->
<svg version="1.1" id="Capa_1" xmlns="http://www.w3.org/2000/svg" xmlns:xlink="http://www.w3.org/1999/xlink" x="0px" y="0px"
	 viewBox="0 0 720 720" enable-background="new 0 0 720 720" xml:space="preserve">
<g>
	<path fill="#571AFF" d="M718.6,360c0-0.1,0-0.2,0-0.3h0c0-13.4-0.8-26.8-2.3-40.2c-21.8,1.5-42.4-10.4-52-30
		c-13.1-26.7-2-58.9,24.7-71.9c-10.8-25-24.4-48.7-40.7-70.6c-18.1,12.2-41.8,12.2-59.9,0.1c-24.7-16.5-31.4-49.9-14.9-74.6
		c-21.9-16.3-45.6-30-70.6-41c-9.6,20-30.5,32-52.6,30.3c-29.6-2.3-51.8-28.2-49.5-57.8c-27.1-3.1-54.4-3.1-81.5,0
		c2.1,25.9-14.6,49.6-39.7,56.3c-25,6.7-51.3-5.4-62.4-28.7c-25,10.8-48.7,24.5-70.6,40.7c12.3,18.1,12.4,41.9,0.2,60.1
		c-16.5,24.7-49.9,31.3-74.6,14.7c-16.3,21.9-30,45.5-40.9,70.5c20,9.6,32,30.6,30.3,52.7c-2.4,29.6-28.3,51.7-57.9,49.3
		c-1.5,13.3-2.3,26.7-2.3,40h0c0,0.1,0,0.2,0,0.3c0,0.1,0,0.2,0,0.3h0c0,13.4,0.8,26.8,2.3,40.2c21.8-1.5,42.4,10.4,52,30
		c13.1,26.7,2,58.9-24.7,71.9c10.8,25,24.4,48.7,40.7,70.6c18.1-12.2,41.8-12.2,59.9-0.1c24.7,16.5,31.4,49.9,14.9,74.6
		c21.9,16.3,45.6,30,70.6,41c9.6-20,30.5-32,52.6-30.3c29.6,2.3,51.8,28.2,49.5,57.8c27.1,3.1,54.4,3.1,81.5,0
		c-2.1-25.9,14.6-49.6,39.7-56.3c25-6.7,51.3,5.4,62.4,28.7c25-10.8,48.7-24.5,70.6-40.7c-12.3-18.1-12.4-41.9-0.2-60.1
		c16.5-24.7,49.9-31.3,74.6-14.7c16.3-21.9,30-45.5,40.9-70.5c-20-9.6-32-30.6-30.3-52.7c2.4-29.6,28.3-51.7,57.9-49.3
		c1.5-13.3,2.3-26.7,2.3-40h0C718.6,360.2,718.6,360.1,718.6,360z M359.8,628.4c-148.2,0-268.4-120-268.9-268.1h0.4
		C91.4,211.9,211.7,91.6,360.2,91.6c148.2,0,268.4,120,268.9,268.1h-0.4C628.6,508.1,508.3,628.4,359.8,628.4z"/>
	<path fill="#571AFF" d="M614.6,360.3c0-0.1,0-0.2,0-0.3c0-0.1,0-0.2,0-0.2c0,0,0-0.1,0-0.1h0c-0.3-140.3-114.2-254-254.6-254
		s-254.2,113.7-254.6,254h0c0,0,0,0.1,0,0.1c0,0.1,0,0.2,0,0.3c0,0.1,0,0.2,0,0.2c0,0,0,0.1,0,0.1h0c0.3,140.3,114.2,254,254.6,254
		S614.2,500.7,614.6,360.3L614.6,360.3C614.6,360.3,614.6,360.3,614.6,360.3z"/>
</g>
<g>
	<path fill="#FFFFFF" d="M358.8,528.7c-1-1.4-1-3-0.7-4.5c0.4-2.1,1-4.2,1.6-6.3c3-10.3,6.2-20.6,8.3-31.1c0.9-4.5,1.5-9.1,1.8-13.8
		c0.4-7.2-0.7-14.3-2.6-21.2c-2.2-7.9-5.2-15.4-8.4-22.9c-6.4-15.4-13.8-30.4-21.4-45.2c-8-15.7-16.1-31.3-23.1-47.4
		c-7.1-16.4-13.5-33-18.4-50.1c-1.5-5.3-2.4-10.7-2.5-16.2c-0.2-9.1,1.9-17.7,5.9-25.8c4.1-8.4,9.6-15.9,15.6-22.9
		c7.7-8.9,16.4-16.9,25.4-24.5c0.3-0.3,0.7-0.6,1-0.9c1.9-1.7,3.9-3.3,6.2-4.5c0.6,0,1.3,0,1.9,0c1,0.9,1,2,0.9,3.2
		c-0.4,4.3-1.1,8.5-1.8,12.7c-0.7,3.7-1.1,7.5-1.3,11.2c-0.3,4.8-0.6,9.7-0.5,14.6c0.1,10,1.1,19.8,3.7,29.5c2,7.4,5,14.4,8.4,21.3
		c7,14,14.1,28,20.8,42.1c10.6,22,20.7,44.1,30.5,66.5c3.2,7.3,6.3,14.7,9.4,22.1c2.2,5.2,4,10.6,5,16.2c1.3,7.1,0.8,14.2-0.9,21.1
		c-2,8.1-5.5,15.6-10,22.6c-4.8,7.6-10.4,14.5-16.6,20.9c-8.9,9.4-18.1,18.4-28.1,26.7c-2.8,2.3-5.8,4.5-8.7,6.8
		C359.9,528.7,359.3,528.7,358.8,528.7z"/>
	<path fill="#FFFFFF" d="M518.9,425.9c-0.1,1.1-0.2,2.2-0.4,3.3c-0.7,4.2-2.1,8.2-3.8,12.1c-3.1,7.2-7.5,13.7-12.5,19.8
		c-5.6,6.8-11.9,12.8-18.5,18.7c-3.9,3.5-7.9,6.9-11.9,10.4c-0.7,0.6-1.6,1.2-2.4,1.7c-1.6,0.9-2.5,0.3-2.4-1.5
		c0-0.6,0.1-1.2,0.2-1.7c1.3-7.3,3.3-14.5,5.1-21.7c1-3.9,1.8-7.9,2.7-11.8c1.5-7,1.3-14-0.2-21c-1.4-6.8-3.8-13.3-6.5-19.7
		c-7.6-17.6-15.8-34.9-24.3-52.1c-5.6-11.2-11.1-22.5-16.5-33.9c-3.4-7.2-6.2-14.8-8.1-22.6c-1.5-6.2-2.1-12.5-1.7-18.9
		c0.4-5.9,1.9-11.6,4.3-17.1c3.5-7.9,8.4-14.9,14-21.4c5.8-6.7,12.3-12.7,19.1-18.4c0.9-0.7,1.9-1.4,3-1.8c2-0.7,3.3,0.3,3,2.4
		c-0.4,3-0.9,6-1.4,8.9c-1.2,6.7-1.9,13.4-1.7,20.1c0.2,8.6,0.9,17.2,3.5,25.5c1.4,4.5,3.2,8.9,5.3,13.1c2,4.1,4.1,8.2,6.1,12.3
		c4.1,8.5,8.2,16.9,12.3,25.4c4.8,10.1,9.5,20.3,14.2,30.5c5.4,11.7,10.5,23.5,15.2,35.5c1.8,4.7,3.3,9.4,4,14.4
		c0.2,1.2,0.3,2.4,0.4,3.6C518.9,421.9,518.9,423.9,518.9,425.9z"/>
	<path fill="#FFFFFF" d="M201.1,286.8c0.1-0.6,0.4-1.1,0.4-1.7c0.8-8,3.7-15.4,7.7-22.3c3.5-6.1,7.8-11.6,12.5-16.7
		c5.2-5.8,11-11,16.9-16c0.6-0.5,1.3-1,2-1.4c0.5-0.3,1.2-0.5,1.8-0.6c1.5-0.3,2.5,0.5,2.4,2.1c0,1.1-0.2,2.2-0.4,3.3
		c-0.5,3-1.1,5.9-1.5,8.9c-1.3,8.4-1.5,16.8-0.9,25.3c0.5,7,1.8,13.9,4.2,20.6c1.2,3.4,2.7,6.7,4.2,9.9c1.9,4.1,4,8.1,6,12.1
		c4.2,8.6,8.4,17.1,12.4,25.8c4.8,10.1,9.5,20.3,14.2,30.5c5.4,11.7,10.5,23.6,15.2,35.6c2,5.2,3.5,10.5,4.2,16
		c0.6,5.9,0.1,11.6-1.7,17.2c-2.4,7.2-5.9,13.9-10.4,20c-4.7,6.5-10,12.5-15.9,17.9c-5,4.6-10.1,9.1-15.2,13.6
		c-1.6,1.4-3.3,2.8-4.9,4.2c-0.6,0.5-1.3,0.8-2,1.1c-0.9,0.3-1.5-0.1-1.5-1c-0.1-0.8,0-1.6,0.2-2.4c0.8-3.8,1.6-7.6,2.5-11.3
		c1.7-7.1,3.4-14.2,5.1-21.3c1.1-4.6,1.5-9.3,1.2-14.1c-0.4-5.3-1.5-10.5-3.1-15.6c-2.2-7-5.2-13.7-8.1-20.4
		c-8.7-20-18.6-39.4-28.3-59c-4.1-8.2-8.2-16.4-11.7-24.9c-3.1-7.7-5.6-15.6-6.7-23.8c-0.2-1.3-0.4-2.6-0.6-3.8
		C201.1,291.9,201.1,289.4,201.1,286.8z"/>
</g>
</svg>
