<?xml version="1.0" encoding="utf-8"?>
<!-- Generator: Adobe Illustrator 23.0.1, SVG Export Plug-In . SVG Version: 6.00 Build 0)  -->
<svg version="1.1" id="Capa_1" xmlns="http://www.w3.org/2000/svg" xmlns:xlink="http://www.w3.org/1999/xlink" x="0px" y="0px"
	 viewBox="0 0 720 720" enable-background="new 0 0 720 720" xml:space="preserve">
<g>
	<path fill="#571AFF" d="M718.6,360c0-0.1,0-0.2,0-0.3h0c0-13.4-0.8-26.8-2.3-40.2c-21.8,1.5-42.4-10.4-52-30
		c-13.1-26.7-2-58.9,24.7-71.9c-10.8-25-24.4-48.7-40.7-70.6c-18.1,12.2-41.8,12.2-59.9,0.1c-24.7-16.5-31.4-49.9-14.9-74.6
		c-21.9-16.3-45.6-30-70.6-41c-9.6,20-30.5,32-52.6,30.3c-29.6-2.3-51.8-28.2-49.5-57.8c-27.1-3.1-54.4-3.1-81.5,0
		c2.1,25.9-14.6,49.6-39.7,56.3c-25,6.7-51.3-5.4-62.4-28.7c-25,10.8-48.7,24.5-70.6,40.7c12.3,18.1,12.4,41.9,0.2,60.1
		c-16.5,24.7-49.9,31.3-74.6,14.7c-16.3,21.9-30,45.5-40.9,70.5c20,9.6,32,30.6,30.3,52.7c-2.4,29.6-28.3,51.7-57.9,49.3
		c-1.5,13.3-2.3,26.7-2.3,40h0c0,0.1,0,0.2,0,0.3c0,0.1,0,0.2,0,0.3h0c0,13.4,0.8,26.8,2.3,40.2c21.8-1.5,42.4,10.4,52,30
		c13.1,26.7,2,58.9-24.7,71.9c10.8,25,24.4,48.7,40.7,70.6c18.1-12.2,41.8-12.2,59.9-0.1c24.7,16.5,31.4,49.9,14.9,74.6
		c21.9,16.3,45.6,30,70.6,41c9.6-20,30.5-32,52.6-30.3c29.6,2.3,51.8,28.2,49.5,57.8c27.1,3.1,54.4,3.1,81.5,0
		c-2.1-25.9,14.6-49.6,39.7-56.3c25-6.7,51.3,5.4,62.4,28.7c25-10.8,48.7-24.5,70.6-40.7c-12.3-18.1-12.4-41.9-0.2-60.1
		c16.5-24.7,49.9-31.3,74.6-14.7c16.3-21.9,30-45.5,40.9-70.5c-20-9.6-32-30.6-30.3-52.7c2.4-29.6,28.3-51.7,57.9-49.3
		c1.5-13.3,2.3-26.7,2.3-40h0C718.6,360.2,718.6,360.1,718.6,360z M359.8,628.4c-148.2,0-268.4-120-268.9-268.1h0.4
		C91.4,211.9,211.7,91.6,360.2,91.6c148.2,0,268.4,120,268.9,268.1h-0.4C628.6,508.1,508.3,628.4,359.8,628.4z"/>
	<path fill="#571AFF" d="M614.6,360.3c0-0.1,0-0.2,0-0.3c0-0.1,0-0.2,0-0.2c0,0,0-0.1,0-0.1h0c-0.3-140.3-114.2-254-254.6-254
		s-254.2,113.7-254.6,254h0c0,0,0,0.1,0,0.1c0,0.1,0,0.2,0,0.3c0,0.1,0,0.2,0,0.2c0,0,0,0.1,0,0.1h0c0.3,140.3,114.2,254,254.6,254
		S614.2,500.7,614.6,360.3L614.6,360.3C614.6,360.3,614.6,360.3,614.6,360.3z"/>
</g>
<text transform="matrix(1 0 0 1 235.0653 527.7385)" fill="#FFFFFF" font-family="'PhrasticMedium'" font-size="475.5438px">B</text>
</svg>
